<?xml version="1.0" encoding="UTF-8" standalone="no"?>
<!-- Created with Inkscape (http://www.inkscape.org/) -->

<svg
   xmlns:dc="http://purl.org/dc/elements/1.1/"
   xmlns:cc="http://creativecommons.org/ns#"
   xmlns:rdf="http://www.w3.org/1999/02/22-rdf-syntax-ns#"
   xmlns:svg="http://www.w3.org/2000/svg"
   xmlns="http://www.w3.org/2000/svg"
   xmlns:xlink="http://www.w3.org/1999/xlink"
   xmlns:sodipodi="http://sodipodi.sourceforge.net/DTD/sodipodi-0.dtd"
   xmlns:inkscape="http://www.inkscape.org/namespaces/inkscape"
   width="1618"
   height="1000"
   id="svg3520"
   version="1.1"
   inkscape:version="0.48.5 r10040"
   sodipodi:docname="IMSA_Undefined_Flag.svg">
  <defs
     id="defs3522" />
  <sodipodi:namedview
     id="base"
     pagecolor="#ffffff"
     bordercolor="#666666"
     borderopacity="1.0"
     inkscape:pageopacity="0.0"
     inkscape:pageshadow="2"
     inkscape:zoom="0.3"
     inkscape:cx="971"
     inkscape:cy="540"
     inkscape:document-units="px"
     inkscape:current-layer="layer1"
     showgrid="false"
     inkscape:snap-page="true"
     inkscape:window-width="1366"
     inkscape:window-height="708"
     inkscape:window-x="0"
     inkscape:window-y="31"
     inkscape:window-maximized="1" />
  <metadata
     id="metadata3525">
    <rdf:RDF>
      <cc:Work
         rdf:about="">
        <dc:format>image/svg+xml</dc:format>
        <dc:type
           rdf:resource="http://purl.org/dc/dcmitype/StillImage" />
        <dc:title />
      </cc:Work>
    </rdf:RDF>
  </metadata>
  <g
     id="layer1"
     inkscape:label="Layer 1"
     inkscape:groupmode="layer"
     transform="translate(0,-80)">
    <rect
       style="fill:#5599ff;stroke:none"
       id="rect3607"
       width="1618"
       height="999.979"
       x="0"
       y="0"
       transform="translate(0,80)" />
  </g>
  <g
     inkscape:groupmode="layer"
     id="layer3"
     inkscape:label="Fist"
     style="display:inline">
    <path
       inkscape:connector-curvature="0"
       id="path3047"
       d="m 714.69506,390.64166 174.30811,-2.00511 54.1324,348.89275 -262.81039,-2.0051 z"
       style="fill:#ffffff;stroke:none;display:inline" />
    <path
       inkscape:connector-curvature="0"
       id="path3049"
       d="m 780.58601,127.97144 c -73.85509,9.50034 -127.97549,69.85594 -123.30204,141.28097 2.01575,30.80701 14.62003,58.87798 34.35667,81.24029 25.70683,-15.96292 55.04243,-26.74501 87.10854,-30.3778 51.36979,-5.81978 100.54492,7.43257 140.45185,34.00667 22.40834,-25.32914 35.01164,-58.34786 32.66244,-94.25054 -4.9851,-76.18669 -74.93794,-135.87353 -156.33374,-133.20562 -5.08723,0.16692 -10.02008,0.67277 -14.94372,1.30603 z"
       style="fill:#ffffff;fill-opacity:1;fill-rule:nonzero;stroke:none;display:inline" />
    <g
       id="g4303"
       transform="matrix(1.570346,0,0,1.570346,-134.93498,-61.937581)"
       style="fill:#ffffff;stroke:none;display:inline">
      <g
         id="branches-olive"
         style="fill:#ffffff;stroke:none">
        <path
           d="m 663.85296,587.03061 c -2.6938,3.07789 -6.17965,5.95542 -9.46619,8.6077 -21.23248,-21.94305 -46.15966,-46.26232 -69.85339,-46.26232 -14.68962,0 -25.26978,11.18247 -37.61316,19.07207 -17.12945,10.94875 -40.62604,17.11471 -60.76155,9.07899 -10.83022,-4.11181 -21.32307,-10.16897 -29.16467,-20.00887 15.84826,10.92988 39.58091,12.3989 57.47189,4.97653 19.77572,-8.20428 39.90389,-19.09846 62.44104,-19.09846 33.22191,0 64.79633,22.4724 86.94603,43.63436 z M 418.31123,518.01637 c 21.99574,25.03833 57.87067,16.98283 87.23346,23.23624 4.08708,0.87043 7.92673,2.2277 12.31363,1.55399 -3.49104,-2.21317 -8.11811,-2.46288 -12.15065,-3.98204 -22.78289,-8.58288 -26.33489,-32.9661 -38.80319,-49.7476 15.92509,10.58731 29.11884,25.08204 44.0112,38.70353 10.36472,9.48023 23.27776,13.53648 36.66995,16.26142 -3.21803,1.17614 -7.4278,0.89873 -10.89355,1.7585 -24.05596,5.96772 -50.72732,15.38772 -76.32434,6.94056 -16.51902,-5.45137 -33.70936,-18.36144 -42.05651,-34.7246 z m -35.25816,-57.95044 c 13.72021,31.0633 48.19128,33.49604 71.11114,52.55246 4.35824,3.6236 8.67829,6.95821 13.46589,9.1911 l 0.24706,-0.25017 c -5.28898,-4.78552 -11.01252,-10.48869 -15.10916,-16.44101 -13.09999,-19.03396 -8.74058,-45.05135 -18.84103,-65.23149 9.17657,10.988 17.78396,22.30262 23.06807,34.88342 8.50335,20.2454 11.39181,43.34164 30.4633,58.72588 -20.64105,-6.80976 -44.45204,-5.4544 -63.03909,-17.62856 -19.53758,-12.79675 -37.64469,-32.99516 -41.36618,-55.80163 z m -14.69705,-62.84601 c 1.98376,27.36777 31.1208,41.98736 45.01398,64.48409 2.96731,4.80486 6.02083,9.76515 10.32987,13.64547 -0.67163,-2.91387 -3.06923,-5.4956 -4.38897,-8.35441 -4.45607,-9.65268 -6.47284,-20.82355 -5.36062,-32.31004 1.35322,-13.97546 7.17932,-26.95254 4.94331,-41.65477 11.97521,25.84803 8.11231,58.16158 15.03338,86.11027 1.5311,6.18289 5.29625,11.5932 7.61634,17.44897 -11.76596,-8.95063 -27.18531,-16.89557 -40.10037,-27.07554 -12.49005,-9.84497 -23.33146,-21.38399 -28.9668,-36.3985 -4.06068,-10.81905 -5.11667,-23.72412 -4.12012,-35.89554 z m 0.81385,-50.42545 c 1.40556,-6.10802 2.481,-12.42989 5.13847,-18.03341 -5.03154,25.81689 12.14351,44.466 18.00746,66.8021 2.20979,8.4172 2.96577,17.36074 6.36962,25.2148 0.31765,0.17025 0.59273,-0.15986 0.78893,-0.41419 -8.47379,-23.77084 3.94797,-45.73963 16.04862,-64.47681 3.1807,-4.92513 4.71181,-10.65998 6.19729,-16.45762 1.30798,10.76067 -0.98237,23.21736 -2.97304,34.32182 -2.56285,14.29621 -7.44921,27.69476 -11.33265,41.48764 -2.55677,8.61705 -1.88306,18.34172 -0.57094,27.36985 l -1.23323,-0.9841 c -9.00944,-16.63201 -26.7842,-29.62498 -32.15224,-47.77733 -4.29027,-14.50781 -7.25821,-31.26884 -4.28829,-47.05275 z m 9.50253,-27.77158 c 0,-19.53651 7.607,-35.47408 19.0175,-50.02372 0.33115,-0.16505 0.56679,-0.49723 0.99448,-0.41938 -12.56173,19.10782 -1.12831,43.22806 -2.74259,64.90139 l -1.65677,22.24384 c 0.24603,0.16194 0.24603,0.82942 0.82942,0.57405 0.74223,-2.47996 0.96749,-5.11783 1.39933,-7.67863 3.02406,-17.93268 18.77089,-30.41447 32.12525,-43.07485 3.15888,-2.99473 5.47169,-6.53571 6.96132,-10.34129 -1.11074,8.93262 -3.60252,18.08966 -7.61219,26.2072 -10.27917,20.81007 -30.13216,37.60836 -33.70313,61.25775 -1.7315,-22.66529 -15.61262,-39.51441 -15.61262,-63.64636 z m 33.11143,-65.90312 c 6.31666,-7.00335 13.39633,-12.45896 21.82445,-14.61712 -16.36626,11.25376 -15.47764,31.3665 -20.48845,48.18322 -1.83219,6.14897 -4.52497,11.90982 -5.95647,18.2649 l 0.41419,0.33115 c 2.72287,-7.18451 7.39468,-14.09066 13.48146,-19.83343 11.51143,-10.86085 28.81796,-17.43445 34.51387,-33.32112 -0.26056,22.0767 -19.07854,38.85848 -36.26614,51.84138 -7.70883,5.82298 -14.26001,13.64133 -18.25763,21.83692 0.66796,-6.09998 0.97133,-11.17418 0.42665,-17.12822 -1.76421,-19.285 -2.90827,-40.90457 10.30807,-55.55768 z m 66.42839,-37.11632 c -12.1465,10.6579 -20.25114,24.37608 -29.58198,36.70835 -7.76061,10.25695 -18.40919,16.61229 -27.56708,25.21896 4.94331,-10.25617 5.85603,-22.00815 12.13404,-31.9301 10.73525,-16.96631 28.47747,-23.55181 45.01502,-29.99721 z"
           style="fill:#ffffff;stroke:none"
           id="path3985"
           inkscape:connector-curvature="0" />
      </g>
      <use
         xlink:href="#branches-olive"
         transform="matrix(-1,0,0,1,1202.2,0)"
         id="use3987"
         x="0"
         y="0"
         width="1200"
         height="800"
         style="fill:#ffffff;stroke:none" />
    </g>
  </g>
</svg>
